<svg width="25" height="24" viewBox="0 0 25 24" fill="none" xmlns="http://www.w3.org/2000/svg">
<g id="message_3_line" clip-path="url(#clip0_21_466)">
<g id="Group">
<path id="Vector" d="M13.9957 3C16.2501 3 18.4121 3.89553 20.0061 5.48959C21.6002 7.08365 22.4957 9.24566 22.4957 11.5C22.4957 13.7543 21.6002 15.9163 20.0061 17.5104C18.4121 19.1045 16.2501 20 13.9957 20H13.4957V20.99C13.4957 21.1227 13.4696 21.2541 13.4188 21.3767C13.3679 21.4993 13.2934 21.6107 13.1996 21.7045C13.1057 21.7983 12.9942 21.8727 12.8715 21.9234C12.7489 21.9741 12.6174 22.0001 12.4847 22C10.0247 21.998 7.53273 21.177 5.64173 19.496C3.73373 17.798 2.49773 15.275 2.49573 12.009V11.5C2.49573 9.24566 3.39126 7.08365 4.98532 5.48959C6.57938 3.89553 8.74139 3 10.9957 3H13.9957ZM13.9957 5H10.9957C9.27182 5 7.61852 5.68482 6.39953 6.90381C5.18055 8.12279 4.49573 9.77609 4.49573 11.5L4.49673 12.165C4.53673 14.807 5.53773 16.727 6.97173 18.001C8.20973 19.103 9.81273 19.76 11.4957 19.945V19.01C11.4957 18.452 11.9477 18 12.5057 18H13.9957C15.7196 18 17.3729 17.3152 18.5919 16.0962C19.8109 14.8772 20.4957 13.2239 20.4957 11.5C20.4957 9.77609 19.8109 8.12279 18.5919 6.90381C17.3729 5.68482 15.7196 5 13.9957 5ZM8.99573 10C9.39355 10 9.77508 10.158 10.0564 10.4393C10.3377 10.7206 10.4957 11.1022 10.4957 11.5C10.4957 11.8978 10.3377 12.2794 10.0564 12.5607C9.77508 12.842 9.39355 13 8.99573 13C8.5979 13 8.21637 12.842 7.93507 12.5607C7.65376 12.2794 7.49573 11.8978 7.49573 11.5C7.49573 11.1022 7.65376 10.7206 7.93507 10.4393C8.21637 10.158 8.5979 10 8.99573 10ZM15.9957 10C16.3936 10 16.7751 10.158 17.0564 10.4393C17.3377 10.7206 17.4957 11.1022 17.4957 11.5C17.4957 11.8978 17.3377 12.2794 17.0564 12.5607C16.7751 12.842 16.3936 13 15.9957 13C15.5979 13 15.2164 12.842 14.9351 12.5607C14.6538 12.2794 14.4957 11.8978 14.4957 11.5C14.4957 11.1022 14.6538 10.7206 14.9351 10.4393C15.2164 10.158 15.5979 10 15.9957 10Z" fill="#FE8415"/>
</g>
</g>
<defs>
<clipPath id="clip0_21_466">
<rect width="24" height="24" fill="white" transform="translate(0.495728)"/>
</clipPath>
</defs>
</svg>
