<svg width="25" height="24" viewBox="0 0 25 24" fill="none" xmlns="http://www.w3.org/2000/svg">
<g id="comment_2_line" clip-path="url(#clip0_21_470)">
<g id="Group">
<path id="Vector" fill-rule="evenodd" clip-rule="evenodd" d="M4.49568 12C4.49463 10.3747 5.05917 8.79972 6.09246 7.54518C7.12574 6.29065 8.56337 5.43476 10.1587 5.12434C11.7541 4.81392 13.4078 5.06833 14.8361 5.84391C16.2644 6.61949 17.3783 7.8679 17.9867 9.37501C18.0874 9.6191 18.2805 9.81347 18.5239 9.91571C18.7674 10.0179 19.0414 10.0198 19.2861 9.92074C19.5309 9.82172 19.7266 9.62991 19.8305 9.38717C19.9344 9.14442 19.938 8.87044 19.8407 8.62501C19.3781 7.47168 18.6818 6.4266 17.7956 5.55555C16.9094 4.6845 15.8524 4.00633 14.6913 3.56374C13.5302 3.12116 12.29 2.92373 11.0488 2.98388C9.80767 3.04404 8.59239 3.36049 7.47951 3.91329C6.36662 4.4661 5.38022 5.24331 4.5824 6.19598C3.78458 7.14866 3.19261 8.25618 2.84375 9.44883C2.4949 10.6415 2.39672 11.8934 2.55538 13.1259C2.71405 14.3583 3.12613 15.5446 3.76568 16.61L2.98568 19.259C2.93441 19.4328 2.93095 19.6172 2.97566 19.7929C3.02037 19.9685 3.11159 20.1288 3.23974 20.257C3.36788 20.3851 3.5282 20.4763 3.70382 20.521C3.87944 20.5657 4.06387 20.5623 4.23768 20.511L6.88768 19.731C7.95349 20.3685 9.14033 20.7772 10.3727 20.931C10.6359 20.9639 10.9014 20.8909 11.1108 20.728C11.3202 20.5651 11.4563 20.3257 11.4892 20.0625C11.5221 19.7993 11.449 19.5338 11.2862 19.3244C11.1233 19.115 10.8839 18.9789 10.6207 18.946C9.59547 18.8184 8.6116 18.4638 7.74068 17.908C7.56881 17.798 7.37537 17.7261 7.17339 17.6971C6.9714 17.6682 6.76555 17.6828 6.56968 17.74L5.41768 18.079L5.75668 16.927C5.87668 16.519 5.80368 16.093 5.58868 15.757C4.87269 14.6349 4.49337 13.3311 4.49568 12ZM20.4957 16.5C20.4956 15.7234 20.2372 14.9689 19.7613 14.3552C19.2853 13.7416 18.6187 13.3036 17.8665 13.1104C17.1144 12.9172 16.3193 12.9796 15.6065 13.2879C14.8936 13.5961 14.3036 14.1327 13.9292 14.8131C13.5548 15.4935 13.4174 16.2791 13.5385 17.0462C13.6596 17.8133 14.0325 18.5184 14.5983 19.0503C15.1641 19.5823 15.8908 19.911 16.6639 19.9846C17.437 20.0582 18.2126 19.8726 18.8687 19.457C19.1388 19.2852 19.4641 19.2226 19.7787 19.282C19.719 18.9676 19.7812 18.6422 19.9527 18.372C20.3083 17.8125 20.4967 17.163 20.4957 16.5ZM16.9957 11C17.9512 10.9999 18.8903 11.2488 19.7204 11.7221C20.5505 12.1955 21.243 12.8769 21.7296 13.6993C22.2162 14.5217 22.4801 15.4567 22.4954 16.4121C22.5107 17.3675 22.2767 18.3105 21.8167 19.148L22.2027 20.459C22.2537 20.6323 22.2571 20.8161 22.2125 20.9911C22.1679 21.1661 22.077 21.3259 21.9493 21.4536C21.8216 21.5813 21.6618 21.6722 21.4868 21.7168C21.3117 21.7614 21.1279 21.758 20.9547 21.707L19.6447 21.321C18.9096 21.7246 18.092 21.9548 17.2543 21.994C16.4167 22.0332 15.5812 21.8803 14.8116 21.547C14.0421 21.2138 13.359 20.7089 12.8145 20.0712C12.27 19.4334 11.8786 18.6796 11.6701 17.8673C11.4616 17.0551 11.4416 16.2059 11.6117 15.3847C11.7817 14.5636 12.1373 13.7922 12.6512 13.1295C13.1651 12.4668 13.8237 11.9305 14.5767 11.5614C15.3297 11.1923 16.1571 11.0003 16.9957 11Z" fill="#FE8415"/>
</g>
</g>
<defs>
<clipPath id="clip0_21_470">
<rect width="24" height="24" fill="white" transform="translate(0.495728)"/>
</clipPath>
</defs>
</svg>
