<svg width="59" height="57" viewBox="0 0 59 57" fill="none" xmlns="http://www.w3.org/2000/svg">
<g id="user_4_line" clip-path="url(#clip0_21_173)">
<g id="Group">
<path id="Vector" fill-rule="evenodd" clip-rule="evenodd" d="M29.4957 4.75C42.8429 4.75 53.6623 15.3829 53.6623 28.5C53.6709 33.9813 51.742 39.2953 48.2055 43.5337L48.2538 43.586L47.9348 43.852C45.6686 46.4864 42.8443 48.6028 39.6595 50.0533C36.4746 51.5038 33.0059 52.2535 29.4957 52.25C22.3665 52.25 15.9623 49.2171 11.5398 44.3959L11.0565 43.8496L10.7375 43.5884L10.7858 43.5314C7.24967 39.2936 5.32084 33.9805 5.32901 28.5C5.32901 15.3829 16.1484 4.75 29.4957 4.75ZM29.4957 40.375C25.0007 40.375 20.9383 41.781 17.9126 43.7142C21.2534 46.1778 25.319 47.5065 29.4957 47.5C33.6724 47.5065 37.7379 46.1778 41.0788 43.7142C37.6214 41.537 33.6019 40.3783 29.4957 40.375ZM29.4957 9.5C25.8574 9.4999 22.293 10.5087 19.2121 12.4104C16.1312 14.3122 13.6588 17.0297 12.0791 20.2506C10.4995 23.4715 9.8767 27.0651 10.2823 30.6183C10.688 34.1715 12.1056 37.5402 14.3722 40.337C18.2896 37.5749 23.6353 35.625 29.4957 35.625C35.3561 35.625 40.7018 37.5749 44.6192 40.337C46.8858 37.5402 48.3034 34.1715 48.709 30.6183C49.1147 27.0651 48.4918 23.4715 46.9122 20.2506C45.3326 17.0297 42.8602 14.3122 39.7793 12.4104C36.6983 10.5087 33.1339 9.4999 29.4957 9.5ZM29.4957 14.25C32.0594 14.25 34.5182 15.2509 36.331 17.0325C38.1439 18.8141 39.1623 21.2304 39.1623 23.75C39.1623 26.2696 38.1439 28.6859 36.331 30.4675C34.5182 32.2491 32.0594 33.25 29.4957 33.25C26.9319 33.25 24.4732 32.2491 22.6603 30.4675C20.8475 28.6859 19.829 26.2696 19.829 23.75C19.829 21.2304 20.8475 18.8141 22.6603 17.0325C24.4732 15.2509 26.9319 14.25 29.4957 14.25ZM29.4957 19C28.2138 19 26.9844 19.5004 26.078 20.3912C25.1716 21.282 24.6623 22.4902 24.6623 23.75C24.6623 25.0098 25.1716 26.218 26.078 27.1088C26.9844 27.9996 28.2138 28.5 29.4957 28.5C30.7776 28.5 32.0069 27.9996 32.9134 27.1088C33.8198 26.218 34.329 25.0098 34.329 23.75C34.329 22.4902 33.8198 21.282 32.9134 20.3912C32.0069 19.5004 30.7776 19 29.4957 19Z" fill="#FE8415"/>
</g>
</g>
<defs>
<clipPath id="clip0_21_173">
<rect width="58" height="57" fill="white" transform="translate(0.495728)"/>
</clipPath>
</defs>
</svg>
